<?xml version="1.0" encoding="utf-8"?>
<!-- Generator: Fusion 360, Shaper Origin Export Add-In, Version 1.7.0  -->
<svg xmlns="http://www.w3.org/2000/svg" xmlns:xlink="http://www.w3.org/1999/xlink" xmlns:shaper="http://www.shapertools.com/namespaces/shaper" shaper:fusionaddin="version:1.7.0" width="1.1cm" height="0.4cm" version="1.1" x="0cm" y="0cm" viewBox="0 0 1.1 0.4" enable-background="new 0 0 1.1 0.4" xml:space="preserve"><path d="M-0.55,0.1 L-0.55,-0.1 A0.1,0.1 180 0,1 -0.45,-0.2 L0.45,-0.2 A0.1,0.1 270 0,1 0.55,-0.1 L0.55,0.1 A0.1,0.1 0 0,1 0.45,0.2 L-0.45,0.2 A0.1,0.1 90 0,1 -0.55,0.1z" transform="matrix(1,0,0,-1,0.55,0.2)" fill="rgb(0,0,0)" shaper:cutDepth="0.2cm" stroke-linecap="round" stroke-linejoin="round" /><path d="M-0.305,-0 a0.005,0.005 0 1,1 0.01,0 a0.005,0.005 0 1,1 -0.01,0z" transform="matrix(1,0,0,-1,0.55,0.2)" fill="rgb(255,255,255)" stroke="rgb(0,0,0)" stroke-width="0.0010cm" stroke-linecap="round" stroke-linejoin="round" shaper:cutDepth="0.2cm" /><path d="M0.295,0 a0.005,0.005 0 1,1 0.01,0 a0.005,0.005 0 1,1 -0.01,0z" transform="matrix(1,0,0,-1,0.55,0.2)" fill="rgb(255,255,255)" stroke="rgb(0,0,0)" stroke-width="0.0010cm" stroke-linecap="round" stroke-linejoin="round" shaper:cutDepth="0.2cm" /></svg>