<?xml version="1.0" encoding="utf-8"?>
<!-- Generator: Fusion 360, Shaper Origin Export Add-In, Version 1.7.0  -->
<svg xmlns="http://www.w3.org/2000/svg" xmlns:xlink="http://www.w3.org/1999/xlink" xmlns:shaper="http://www.shapertools.com/namespaces/shaper" shaper:fusionaddin="version:1.7.0" width="1cm" height="1cm" version="1.1" x="0cm" y="0cm" viewBox="0 0 1 1" enable-background="new 0 0 1 1" xml:space="preserve"><path d="M0.4,0.5 L-0.4,0.5 A0.1,0.1 90 0,1 -0.5,0.4 L-0.5,-0.4 A0.1,0.1 180 0,1 -0.4,-0.5 L0.4,-0.5 A0.1,0.1 270 0,1 0.5,-0.4 L0.5,0.4 A0.1,0.1 0 0,1 0.4,0.5z" transform="matrix(1,0,0,-1,0.5,0.5)" fill="rgb(0,0,0)" shaper:cutDepth="0.3cm" stroke-linecap="round" stroke-linejoin="round" /><path d="M-0.005,0.25 a0.005,0.005 0 1,1 0.01,0 a0.005,0.005 0 1,1 -0.01,0z" transform="matrix(1,0,0,-1,0.5,0.5)" fill="rgb(255,255,255)" stroke="rgb(0,0,0)" stroke-width="0.0010cm" stroke-linecap="round" stroke-linejoin="round" shaper:cutDepth="0.3cm" /><path d="M-0.005,-0.25 a0.005,0.005 0 1,1 0.01,0 a0.005,0.005 0 1,1 -0.01,0z" transform="matrix(1,0,0,-1,0.5,0.5)" fill="rgb(255,255,255)" stroke="rgb(0,0,0)" stroke-width="0.0010cm" stroke-linecap="round" stroke-linejoin="round" shaper:cutDepth="0.3cm" /></svg>